<mxfile host="app.diagrams.net" agent="Mozilla/5.0 (Macintosh; Intel Mac OS X 10_15_7) AppleWebKit/537.36 (KHTML, like Gecko) Chrome/129.0.0.0 Safari/537.36" version="24.7.17">
  <diagram name="Page-1" id="H3pMinGVCzr7B0PxS-Pm">
    <mxGraphModel dx="853" dy="751" grid="1" gridSize="10" guides="1" tooltips="1" connect="1" arrows="1" fold="1" page="1" pageScale="1" pageWidth="850" pageHeight="1100" math="0" shadow="0">
      <root>
        <mxCell id="0" />
        <mxCell id="1" parent="0" />
        <mxCell id="9e2CFXTMy3aD5x_XGBw3-73" value="" style="rounded=0;whiteSpace=wrap;html=1;" parent="1" vertex="1">
          <mxGeometry y="30" width="210" height="610" as="geometry" />
        </mxCell>
        <mxCell id="9e2CFXTMy3aD5x_XGBw3-37" value="" style="rounded=0;whiteSpace=wrap;html=1;" parent="1" vertex="1">
          <mxGeometry x="640" y="90" width="310" height="340" as="geometry" />
        </mxCell>
        <mxCell id="9e2CFXTMy3aD5x_XGBw3-35" value="" style="rounded=0;whiteSpace=wrap;html=1;" parent="1" vertex="1">
          <mxGeometry x="410" y="90" width="190" height="340" as="geometry" />
        </mxCell>
        <mxCell id="9e2CFXTMy3aD5x_XGBw3-34" value="" style="rounded=0;whiteSpace=wrap;html=1;" parent="1" vertex="1">
          <mxGeometry x="220" y="90" width="170" height="340" as="geometry" />
        </mxCell>
        <mxCell id="9e2CFXTMy3aD5x_XGBw3-33" value="" style="rounded=0;whiteSpace=wrap;html=1;" parent="1" vertex="1">
          <mxGeometry x="20" y="60" width="180" height="400" as="geometry" />
        </mxCell>
        <mxCell id="9e2CFXTMy3aD5x_XGBw3-1" value="MainViewController" style="whiteSpace=wrap;html=1;" parent="1" vertex="1">
          <mxGeometry x="40" y="50" width="150" height="30" as="geometry" />
        </mxCell>
        <mxCell id="9e2CFXTMy3aD5x_XGBw3-2" value="ImageSliderView" style="whiteSpace=wrap;html=1;" parent="1" vertex="1">
          <mxGeometry x="230" y="130" width="150" height="30" as="geometry" />
        </mxCell>
        <mxCell id="9e2CFXTMy3aD5x_XGBw3-3" value="ChipSectionView" style="whiteSpace=wrap;html=1;" parent="1" vertex="1">
          <mxGeometry x="230" y="180" width="150" height="30" as="geometry" />
        </mxCell>
        <mxCell id="9e2CFXTMy3aD5x_XGBw3-4" value="HorizontalGridScrollView" style="whiteSpace=wrap;html=1;fillColor=#008a00;fontColor=#ffffff;strokeColor=#005700;" parent="1" vertex="1">
          <mxGeometry x="230" y="230" width="150" height="30" as="geometry" />
        </mxCell>
        <mxCell id="9e2CFXTMy3aD5x_XGBw3-5" value="ImageSliderReactor" style="whiteSpace=wrap;html=1;" parent="1" vertex="1">
          <mxGeometry x="420" y="130" width="140" height="30" as="geometry" />
        </mxCell>
        <mxCell id="9e2CFXTMy3aD5x_XGBw3-6" value="ChipsSelectionReactor" style="whiteSpace=wrap;html=1;" parent="1" vertex="1">
          <mxGeometry x="420" y="180" width="140" height="30" as="geometry" />
        </mxCell>
        <mxCell id="9e2CFXTMy3aD5x_XGBw3-7" value="HorizontalGridScrollReactor" style="whiteSpace=wrap;html=1;fillColor=#008a00;fontColor=#ffffff;strokeColor=#005700;" parent="1" vertex="1">
          <mxGeometry x="420" y="230" width="170" height="30" as="geometry" />
        </mxCell>
        <mxCell id="9e2CFXTMy3aD5x_XGBw3-8" value="BannerRepository" style="whiteSpace=wrap;html=1;" parent="1" vertex="1">
          <mxGeometry x="790" y="130" width="140" height="30" as="geometry" />
        </mxCell>
        <mxCell id="9e2CFXTMy3aD5x_XGBw3-9" value="PointRepository" style="whiteSpace=wrap;html=1;" parent="1" vertex="1">
          <mxGeometry x="790" y="180" width="140" height="30" as="geometry" />
        </mxCell>
        <mxCell id="9e2CFXTMy3aD5x_XGBw3-10" value="TodayProductRepository" style="whiteSpace=wrap;html=1;" parent="1" vertex="1">
          <mxGeometry x="790" y="230" width="140" height="30" as="geometry" />
        </mxCell>
        <mxCell id="9e2CFXTMy3aD5x_XGBw3-11" value="Banner" style="whiteSpace=wrap;html=1;" parent="1" vertex="1">
          <mxGeometry x="50" y="135" width="130" height="30" as="geometry" />
        </mxCell>
        <mxCell id="9e2CFXTMy3aD5x_XGBw3-13" value="&lt;div&gt;Section&lt;/div&gt;Would you like" style="whiteSpace=wrap;html=1;" parent="1" vertex="1">
          <mxGeometry x="50" y="185" width="130" height="30" as="geometry" />
        </mxCell>
        <mxCell id="9e2CFXTMy3aD5x_XGBw3-14" value="Section&lt;div&gt;Today Publishing&lt;/div&gt;" style="whiteSpace=wrap;html=1;" parent="1" vertex="1">
          <mxGeometry x="50" y="235" width="130" height="30" as="geometry" />
        </mxCell>
        <mxCell id="9e2CFXTMy3aD5x_XGBw3-15" value="Section&lt;div&gt;Hot SNS&lt;/div&gt;" style="whiteSpace=wrap;html=1;" parent="1" vertex="1">
          <mxGeometry x="50" y="285" width="130" height="30" as="geometry" />
        </mxCell>
        <mxCell id="9e2CFXTMy3aD5x_XGBw3-17" value="Section&lt;div&gt;Genre&lt;/div&gt;" style="whiteSpace=wrap;html=1;" parent="1" vertex="1">
          <mxGeometry x="50" y="335" width="130" height="30" as="geometry" />
        </mxCell>
        <mxCell id="9e2CFXTMy3aD5x_XGBw3-18" value="Section&lt;div&gt;Recommend&lt;br&gt;&lt;/div&gt;" style="whiteSpace=wrap;html=1;" parent="1" vertex="1">
          <mxGeometry x="50" y="385" width="130" height="30" as="geometry" />
        </mxCell>
        <mxCell id="9e2CFXTMy3aD5x_XGBw3-20" value="HorizontalGridScrollView" style="whiteSpace=wrap;html=1;fillColor=#008a00;fontColor=#ffffff;strokeColor=#005700;" parent="1" vertex="1">
          <mxGeometry x="230" y="280" width="150" height="30" as="geometry" />
        </mxCell>
        <mxCell id="9e2CFXTMy3aD5x_XGBw3-21" value="HorizontalGridScrollReactor" style="whiteSpace=wrap;html=1;fillColor=#008a00;fontColor=#ffffff;strokeColor=#005700;" parent="1" vertex="1">
          <mxGeometry x="420" y="280" width="170" height="30" as="geometry" />
        </mxCell>
        <mxCell id="9e2CFXTMy3aD5x_XGBw3-22" value="HotSNSRepository" style="whiteSpace=wrap;html=1;" parent="1" vertex="1">
          <mxGeometry x="790" y="280" width="140" height="30" as="geometry" />
        </mxCell>
        <mxCell id="9e2CFXTMy3aD5x_XGBw3-23" value="HorizontalGridScrollView" style="whiteSpace=wrap;html=1;fillColor=#008a00;fontColor=#ffffff;strokeColor=#005700;" parent="1" vertex="1">
          <mxGeometry x="230" y="330" width="150" height="30" as="geometry" />
        </mxCell>
        <mxCell id="9e2CFXTMy3aD5x_XGBw3-24" value="HorizontalGridScrollReactor" style="whiteSpace=wrap;html=1;fillColor=#008a00;fontColor=#ffffff;strokeColor=#005700;" parent="1" vertex="1">
          <mxGeometry x="420" y="330" width="170" height="30" as="geometry" />
        </mxCell>
        <mxCell id="9e2CFXTMy3aD5x_XGBw3-25" value="GenreRepository" style="whiteSpace=wrap;html=1;" parent="1" vertex="1">
          <mxGeometry x="790" y="330" width="140" height="30" as="geometry" />
        </mxCell>
        <mxCell id="9e2CFXTMy3aD5x_XGBw3-26" value="HorizontalGridScrollView" style="whiteSpace=wrap;html=1;fillColor=#008a00;fontColor=#ffffff;strokeColor=#005700;" parent="1" vertex="1">
          <mxGeometry x="230" y="380" width="150" height="30" as="geometry" />
        </mxCell>
        <mxCell id="9e2CFXTMy3aD5x_XGBw3-27" value="HorizontalGridScrollReactor" style="whiteSpace=wrap;html=1;fillColor=#008a00;fontColor=#ffffff;strokeColor=#005700;" parent="1" vertex="1">
          <mxGeometry x="420" y="380" width="170" height="30" as="geometry" />
        </mxCell>
        <mxCell id="9e2CFXTMy3aD5x_XGBw3-28" value="RecommendRepository" style="whiteSpace=wrap;html=1;" parent="1" vertex="1">
          <mxGeometry x="790" y="380" width="140" height="30" as="geometry" />
        </mxCell>
        <mxCell id="9e2CFXTMy3aD5x_XGBw3-32" value="ProductCommon&lt;div&gt;Respository&lt;/div&gt;" style="whiteSpace=wrap;html=1;" parent="1" vertex="1">
          <mxGeometry x="660" y="280" width="100" height="70" as="geometry" />
        </mxCell>
        <mxCell id="9e2CFXTMy3aD5x_XGBw3-36" style="edgeStyle=orthogonalEdgeStyle;rounded=0;orthogonalLoop=1;jettySize=auto;html=1;exitX=0.75;exitY=1;exitDx=0;exitDy=0;entryX=0.827;entryY=0.986;entryDx=0;entryDy=0;entryPerimeter=0;" parent="1" source="9e2CFXTMy3aD5x_XGBw3-32" target="9e2CFXTMy3aD5x_XGBw3-32" edge="1">
          <mxGeometry relative="1" as="geometry" />
        </mxCell>
        <mxCell id="9e2CFXTMy3aD5x_XGBw3-39" value="" style="shape=cylinder3;whiteSpace=wrap;html=1;boundedLbl=1;backgroundOutline=1;size=15;" parent="1" vertex="1">
          <mxGeometry x="1000" y="135" width="60" height="275" as="geometry" />
        </mxCell>
        <mxCell id="9e2CFXTMy3aD5x_XGBw3-40" value="server" style="text;html=1;align=center;verticalAlign=middle;resizable=0;points=[];autosize=1;strokeColor=none;fillColor=none;" parent="1" vertex="1">
          <mxGeometry x="1000" y="100" width="60" height="30" as="geometry" />
        </mxCell>
        <mxCell id="9e2CFXTMy3aD5x_XGBw3-41" value="" style="shape=partialRectangle;whiteSpace=wrap;html=1;bottom=0;right=0;fillColor=none;" parent="1" vertex="1">
          <mxGeometry x="780" y="250" width="10" height="140" as="geometry" />
        </mxCell>
        <mxCell id="9e2CFXTMy3aD5x_XGBw3-45" value="" style="line;strokeWidth=2;html=1;" parent="1" vertex="1">
          <mxGeometry x="780" y="380" width="10" height="10" as="geometry" />
        </mxCell>
        <mxCell id="9e2CFXTMy3aD5x_XGBw3-46" value="" style="line;strokeWidth=2;html=1;" parent="1" vertex="1">
          <mxGeometry x="760" y="315" width="20" height="10" as="geometry" />
        </mxCell>
        <mxCell id="9e2CFXTMy3aD5x_XGBw3-47" value="" style="shape=partialRectangle;whiteSpace=wrap;html=1;bottom=0;right=0;fillColor=none;rotation=90;" parent="1" vertex="1">
          <mxGeometry x="520" y="310" width="160" height="20" as="geometry" />
        </mxCell>
        <mxCell id="9e2CFXTMy3aD5x_XGBw3-48" value="" style="endArrow=none;html=1;rounded=0;" parent="1" edge="1">
          <mxGeometry width="50" height="50" relative="1" as="geometry">
            <mxPoint x="590" y="400" as="sourcePoint" />
            <mxPoint x="610" y="400" as="targetPoint" />
          </mxGeometry>
        </mxCell>
        <mxCell id="9e2CFXTMy3aD5x_XGBw3-49" value="" style="endArrow=none;html=1;rounded=0;entryX=0.02;entryY=0.564;entryDx=0;entryDy=0;entryPerimeter=0;" parent="1" target="9e2CFXTMy3aD5x_XGBw3-32" edge="1">
          <mxGeometry width="50" height="50" relative="1" as="geometry">
            <mxPoint x="610" y="319.75" as="sourcePoint" />
            <mxPoint x="640" y="319.75" as="targetPoint" />
          </mxGeometry>
        </mxCell>
        <mxCell id="9e2CFXTMy3aD5x_XGBw3-50" value="" style="endArrow=none;html=1;rounded=0;entryX=0;entryY=0.5;entryDx=0;entryDy=0;exitX=1;exitY=0.5;exitDx=0;exitDy=0;" parent="1" source="9e2CFXTMy3aD5x_XGBw3-6" target="9e2CFXTMy3aD5x_XGBw3-9" edge="1">
          <mxGeometry width="50" height="50" relative="1" as="geometry">
            <mxPoint x="574" y="195.12" as="sourcePoint" />
            <mxPoint x="626" y="194.37" as="targetPoint" />
          </mxGeometry>
        </mxCell>
        <mxCell id="9e2CFXTMy3aD5x_XGBw3-51" value="" style="endArrow=none;html=1;rounded=0;entryX=0;entryY=0.5;entryDx=0;entryDy=0;exitX=1;exitY=0.5;exitDx=0;exitDy=0;" parent="1" target="9e2CFXTMy3aD5x_XGBw3-8" edge="1">
          <mxGeometry width="50" height="50" relative="1" as="geometry">
            <mxPoint x="560" y="144.63" as="sourcePoint" />
            <mxPoint x="680" y="144.63" as="targetPoint" />
          </mxGeometry>
        </mxCell>
        <mxCell id="9e2CFXTMy3aD5x_XGBw3-52" value="" style="endArrow=none;html=1;rounded=0;exitX=1;exitY=0.5;exitDx=0;exitDy=0;" parent="1" edge="1">
          <mxGeometry width="50" height="50" relative="1" as="geometry">
            <mxPoint x="380" y="144.63" as="sourcePoint" />
            <mxPoint x="420" y="145" as="targetPoint" />
          </mxGeometry>
        </mxCell>
        <mxCell id="9e2CFXTMy3aD5x_XGBw3-53" value="" style="endArrow=none;html=1;rounded=0;exitX=1;exitY=0.5;exitDx=0;exitDy=0;" parent="1" edge="1">
          <mxGeometry width="50" height="50" relative="1" as="geometry">
            <mxPoint x="380" y="194.63" as="sourcePoint" />
            <mxPoint x="420" y="195" as="targetPoint" />
          </mxGeometry>
        </mxCell>
        <mxCell id="9e2CFXTMy3aD5x_XGBw3-54" value="" style="endArrow=none;html=1;rounded=0;exitX=1;exitY=0.5;exitDx=0;exitDy=0;" parent="1" edge="1">
          <mxGeometry width="50" height="50" relative="1" as="geometry">
            <mxPoint x="380" y="244.63" as="sourcePoint" />
            <mxPoint x="420" y="245" as="targetPoint" />
          </mxGeometry>
        </mxCell>
        <mxCell id="9e2CFXTMy3aD5x_XGBw3-55" value="" style="endArrow=none;html=1;rounded=0;exitX=1;exitY=0.5;exitDx=0;exitDy=0;" parent="1" edge="1">
          <mxGeometry width="50" height="50" relative="1" as="geometry">
            <mxPoint x="380" y="294.63" as="sourcePoint" />
            <mxPoint x="420" y="295" as="targetPoint" />
          </mxGeometry>
        </mxCell>
        <mxCell id="9e2CFXTMy3aD5x_XGBw3-56" value="" style="endArrow=none;html=1;rounded=0;exitX=1;exitY=0.5;exitDx=0;exitDy=0;" parent="1" edge="1">
          <mxGeometry width="50" height="50" relative="1" as="geometry">
            <mxPoint x="380" y="344.63" as="sourcePoint" />
            <mxPoint x="420" y="345" as="targetPoint" />
          </mxGeometry>
        </mxCell>
        <mxCell id="9e2CFXTMy3aD5x_XGBw3-57" value="" style="endArrow=none;html=1;rounded=0;exitX=1;exitY=0.5;exitDx=0;exitDy=0;" parent="1" edge="1">
          <mxGeometry width="50" height="50" relative="1" as="geometry">
            <mxPoint x="380" y="394.5" as="sourcePoint" />
            <mxPoint x="420" y="394.87" as="targetPoint" />
          </mxGeometry>
        </mxCell>
        <mxCell id="9e2CFXTMy3aD5x_XGBw3-58" value="" style="endArrow=none;html=1;rounded=0;exitX=1;exitY=0.5;exitDx=0;exitDy=0;" parent="1" edge="1">
          <mxGeometry width="50" height="50" relative="1" as="geometry">
            <mxPoint x="190" y="147.13" as="sourcePoint" />
            <mxPoint x="230" y="147.5" as="targetPoint" />
          </mxGeometry>
        </mxCell>
        <mxCell id="9e2CFXTMy3aD5x_XGBw3-59" value="" style="endArrow=none;html=1;rounded=0;exitX=1;exitY=0.5;exitDx=0;exitDy=0;" parent="1" edge="1">
          <mxGeometry width="50" height="50" relative="1" as="geometry">
            <mxPoint x="190" y="197.13" as="sourcePoint" />
            <mxPoint x="230" y="197.5" as="targetPoint" />
          </mxGeometry>
        </mxCell>
        <mxCell id="9e2CFXTMy3aD5x_XGBw3-60" value="" style="endArrow=none;html=1;rounded=0;exitX=1;exitY=0.5;exitDx=0;exitDy=0;" parent="1" edge="1">
          <mxGeometry width="50" height="50" relative="1" as="geometry">
            <mxPoint x="190" y="247.13" as="sourcePoint" />
            <mxPoint x="230" y="247.5" as="targetPoint" />
          </mxGeometry>
        </mxCell>
        <mxCell id="9e2CFXTMy3aD5x_XGBw3-61" value="" style="endArrow=none;html=1;rounded=0;exitX=1;exitY=0.5;exitDx=0;exitDy=0;" parent="1" edge="1">
          <mxGeometry width="50" height="50" relative="1" as="geometry">
            <mxPoint x="190" y="297.13" as="sourcePoint" />
            <mxPoint x="230" y="297.5" as="targetPoint" />
          </mxGeometry>
        </mxCell>
        <mxCell id="9e2CFXTMy3aD5x_XGBw3-62" value="" style="endArrow=none;html=1;rounded=0;exitX=1;exitY=0.5;exitDx=0;exitDy=0;" parent="1" edge="1">
          <mxGeometry width="50" height="50" relative="1" as="geometry">
            <mxPoint x="190" y="347.13" as="sourcePoint" />
            <mxPoint x="230" y="347.5" as="targetPoint" />
          </mxGeometry>
        </mxCell>
        <mxCell id="9e2CFXTMy3aD5x_XGBw3-63" value="" style="endArrow=none;html=1;rounded=0;exitX=1;exitY=0.5;exitDx=0;exitDy=0;" parent="1" edge="1">
          <mxGeometry width="50" height="50" relative="1" as="geometry">
            <mxPoint x="190" y="397.13" as="sourcePoint" />
            <mxPoint x="230" y="397.5" as="targetPoint" />
          </mxGeometry>
        </mxCell>
        <mxCell id="9e2CFXTMy3aD5x_XGBw3-64" value="&lt;div&gt;Resuable&lt;/div&gt;Component" style="whiteSpace=wrap;html=1;" parent="1" vertex="1">
          <mxGeometry x="240" y="70" width="130" height="30" as="geometry" />
        </mxCell>
        <mxCell id="9e2CFXTMy3aD5x_XGBw3-65" value="Reactor" style="whiteSpace=wrap;html=1;" parent="1" vertex="1">
          <mxGeometry x="430" y="70" width="130" height="30" as="geometry" />
        </mxCell>
        <mxCell id="9e2CFXTMy3aD5x_XGBw3-66" value="Repository" style="whiteSpace=wrap;html=1;" parent="1" vertex="1">
          <mxGeometry x="740" y="70" width="130" height="30" as="geometry" />
        </mxCell>
        <mxCell id="9e2CFXTMy3aD5x_XGBw3-67" value="" style="line;strokeWidth=2;html=1;" parent="1" vertex="1">
          <mxGeometry x="930" y="140" width="60" height="10" as="geometry" />
        </mxCell>
        <mxCell id="9e2CFXTMy3aD5x_XGBw3-68" value="" style="line;strokeWidth=2;html=1;" parent="1" vertex="1">
          <mxGeometry x="930" y="190" width="60" height="10" as="geometry" />
        </mxCell>
        <mxCell id="9e2CFXTMy3aD5x_XGBw3-69" value="" style="line;strokeWidth=2;html=1;" parent="1" vertex="1">
          <mxGeometry x="930" y="240" width="60" height="10" as="geometry" />
        </mxCell>
        <mxCell id="9e2CFXTMy3aD5x_XGBw3-70" value="" style="line;strokeWidth=2;html=1;" parent="1" vertex="1">
          <mxGeometry x="930" y="290" width="60" height="10" as="geometry" />
        </mxCell>
        <mxCell id="9e2CFXTMy3aD5x_XGBw3-71" value="" style="line;strokeWidth=2;html=1;" parent="1" vertex="1">
          <mxGeometry x="930" y="340" width="60" height="10" as="geometry" />
        </mxCell>
        <mxCell id="9e2CFXTMy3aD5x_XGBw3-72" value="" style="line;strokeWidth=2;html=1;" parent="1" vertex="1">
          <mxGeometry x="930" y="390" width="60" height="10" as="geometry" />
        </mxCell>
        <mxCell id="9e2CFXTMy3aD5x_XGBw3-74" value="UITabBarController" style="whiteSpace=wrap;html=1;" parent="1" vertex="1">
          <mxGeometry x="35" y="10" width="150" height="30" as="geometry" />
        </mxCell>
        <mxCell id="9e2CFXTMy3aD5x_XGBw3-75" value="CategoryViewController" style="whiteSpace=wrap;html=1;" parent="1" vertex="1">
          <mxGeometry x="35" y="475" width="150" height="30" as="geometry" />
        </mxCell>
        <mxCell id="9e2CFXTMy3aD5x_XGBw3-76" value="CartViewController" style="whiteSpace=wrap;html=1;" parent="1" vertex="1">
          <mxGeometry x="35" y="515" width="150" height="30" as="geometry" />
        </mxCell>
        <mxCell id="9e2CFXTMy3aD5x_XGBw3-77" value="SearchViewController" style="whiteSpace=wrap;html=1;" parent="1" vertex="1">
          <mxGeometry x="35" y="555" width="150" height="30" as="geometry" />
        </mxCell>
        <mxCell id="9e2CFXTMy3aD5x_XGBw3-78" value="ProfileViewController" style="whiteSpace=wrap;html=1;" parent="1" vertex="1">
          <mxGeometry x="35" y="595" width="150" height="30" as="geometry" />
        </mxCell>
        <mxCell id="9e2CFXTMy3aD5x_XGBw3-79" value="DetailViewController" style="whiteSpace=wrap;html=1;" parent="1" vertex="1">
          <mxGeometry x="230" y="450" width="150" height="30" as="geometry" />
        </mxCell>
        <mxCell id="9e2CFXTMy3aD5x_XGBw3-80" value="WebViewController" style="whiteSpace=wrap;html=1;" parent="1" vertex="1">
          <mxGeometry x="230" y="490" width="150" height="30" as="geometry" />
        </mxCell>
        <mxCell id="EgJGpE3m631TGcVx9LoC-1" value="DetailViewReactor" style="whiteSpace=wrap;html=1;" vertex="1" parent="1">
          <mxGeometry x="420" y="450" width="140" height="30" as="geometry" />
        </mxCell>
        <mxCell id="EgJGpE3m631TGcVx9LoC-2" value="" style="endArrow=none;html=1;rounded=0;exitX=1;exitY=0.5;exitDx=0;exitDy=0;" edge="1" parent="1">
          <mxGeometry width="50" height="50" relative="1" as="geometry">
            <mxPoint x="380" y="464.5" as="sourcePoint" />
            <mxPoint x="420" y="464.87" as="targetPoint" />
          </mxGeometry>
        </mxCell>
        <mxCell id="EgJGpE3m631TGcVx9LoC-3" value="UICollectionView&lt;div&gt;&lt;/div&gt;" style="whiteSpace=wrap;html=1;" vertex="1" parent="1">
          <mxGeometry x="50" y="90" width="130" height="30" as="geometry" />
        </mxCell>
        <mxCell id="EgJGpE3m631TGcVx9LoC-4" value="" style="rounded=0;whiteSpace=wrap;html=1;fillColor=none;" vertex="1" parent="1">
          <mxGeometry x="40" y="120" width="150" height="320" as="geometry" />
        </mxCell>
      </root>
    </mxGraphModel>
  </diagram>
</mxfile>
